<svg class="svg-font" viewBox="0 0 23 23" fill="none" xmlns="http://www.w3.org/2000/svg">
<path d="M12.2197 9.34375C12.2197 9.15313 12.1439 8.97031 12.0091 8.83552C11.8743 8.70073 11.6915 8.625 11.5009 8.625C11.3103 8.625 11.1275 8.70073 10.9927 8.83552C10.8579 8.97031 10.7822 9.15313 10.7822 9.34375V14.7962L9.13478 13.1474C9.06796 13.0805 8.98862 13.0275 8.90131 12.9914C8.814 12.9552 8.72041 12.9366 8.62591 12.9366C8.5314 12.9366 8.43782 12.9552 8.35051 12.9914C8.26319 13.0275 8.18386 13.0805 8.11703 13.1474C8.05021 13.2142 7.9972 13.2935 7.96103 13.3808C7.92486 13.4682 7.90625 13.5617 7.90625 13.6562C7.90625 13.7508 7.92486 13.8443 7.96103 13.9317C7.9972 14.019 8.05021 14.0983 8.11703 14.1651L10.992 17.0401C11.0588 17.1071 11.1381 17.1602 11.2254 17.1964C11.3128 17.2326 11.4064 17.2513 11.5009 17.2513C11.5954 17.2513 11.6891 17.2326 11.7764 17.1964C11.8637 17.1602 11.943 17.1071 12.0098 17.0401L14.8848 14.1651C14.9516 14.0983 15.0046 14.019 15.0408 13.9317C15.077 13.8443 15.0956 13.7508 15.0956 13.6562C15.0956 13.5617 15.077 13.4682 15.0408 13.3808C15.0046 13.2935 14.9516 13.2142 14.8848 13.1474C14.818 13.0805 14.7386 13.0275 14.6513 12.9914C14.564 12.9552 14.4704 12.9366 14.3759 12.9366C14.2814 12.9366 14.1878 12.9552 14.1005 12.9914C14.0132 13.0275 13.9339 13.0805 13.867 13.1474L12.2197 14.7962V9.34375Z" fill="currentColor"/>
<path d="M20.125 20.125V6.46875L13.6562 0H5.75C4.9875 0 4.25623 0.302901 3.71707 0.842068C3.1779 1.38124 2.875 2.1125 2.875 2.875V20.125C2.875 20.8875 3.1779 21.6188 3.71707 22.1579C4.25623 22.6971 4.9875 23 5.75 23H17.25C18.0125 23 18.7438 22.6971 19.2829 22.1579C19.8221 21.6188 20.125 20.8875 20.125 20.125ZM13.6562 4.3125C13.6562 4.88437 13.8834 5.43282 14.2878 5.8372C14.6922 6.24157 15.2406 6.46875 15.8125 6.46875H18.6875V20.125C18.6875 20.5062 18.536 20.8719 18.2665 21.1415C17.9969 21.411 17.6312 21.5625 17.25 21.5625H5.75C5.36875 21.5625 5.00312 21.411 4.73353 21.1415C4.46395 20.8719 4.3125 20.5062 4.3125 20.125V2.875C4.3125 2.49375 4.46395 2.12812 4.73353 1.85853C5.00312 1.58895 5.36875 1.4375 5.75 1.4375H13.6562V4.3125Z" fill="currentColor"/>
</svg>
