<svg class="svg-font" width="15" height="8" viewBox="0 0 15 8" fill="none" xmlns="http://www.w3.org/2000/svg">
<path d="M13.3594 1.40625H0.703125C0.516645 1.40625 0.337802 1.33217 0.205941 1.20031C0.0740791 1.06845 0 0.889605 0 0.703125C0 0.516645 0.0740791 0.337802 0.205941 0.20594C0.337802 0.0740789 0.516645 0 0.703125 0H13.3594C13.5459 0 13.7247 0.0740789 13.8566 0.20594C13.9884 0.337802 14.0625 0.516645 14.0625 0.703125C14.0625 0.889605 13.9884 1.06845 13.8566 1.20031C13.7247 1.33217 13.5459 1.40625 13.3594 1.40625ZM11.0156 4.6875H3.04688C2.86039 4.6875 2.68155 4.61342 2.54969 4.48156C2.41783 4.3497 2.34375 4.17086 2.34375 3.98438C2.34375 3.79789 2.41783 3.61905 2.54969 3.48719C2.68155 3.35533 2.86039 3.28125 3.04688 3.28125H11.0156C11.2021 3.28125 11.3809 3.35533 11.5128 3.48719C11.6447 3.61905 11.7188 3.79789 11.7188 3.98438C11.7188 4.17086 11.6447 4.3497 11.5128 4.48156C11.3809 4.61342 11.2021 4.6875 11.0156 4.6875ZM8.20312 7.96875H5.85938C5.67289 7.96875 5.49405 7.89467 5.36219 7.76281C5.23033 7.63095 5.15625 7.45211 5.15625 7.26562C5.15625 7.07914 5.23033 6.9003 5.36219 6.76844C5.49405 6.63658 5.67289 6.5625 5.85938 6.5625H8.20312C8.38961 6.5625 8.56845 6.63658 8.70031 6.76844C8.83217 6.9003 8.90625 7.07914 8.90625 7.26562C8.90625 7.45211 8.83217 7.63095 8.70031 7.76281C8.56845 7.89467 8.38961 7.96875 8.20312 7.96875Z" fill="#AAAAAA"/>
</svg>
