<svg class="svg-font" viewBox="0 0 23 23" fill="none" xmlns="http://www.w3.org/2000/svg">
<path d="M11.6311 2.15626C6.37618 2.08529 2.08614 6.37533 2.15712 11.6303C2.2272 16.6701 6.33081 20.7737 11.3706 20.8438C16.6265 20.9156 20.9156 16.6256 20.8437 11.3706C20.7745 6.32996 16.6709 2.22634 11.6311 2.15626ZM17.3102 16.8569C17.2923 16.8763 17.2703 16.8915 17.2459 16.9014C17.2215 16.9113 17.1952 16.9158 17.1689 16.9144C17.1426 16.913 17.1169 16.9059 17.0936 16.8935C17.0704 16.8811 17.0501 16.8637 17.0343 16.8426C16.6325 16.3169 16.1405 15.8668 15.5811 15.5133C14.4374 14.7793 12.9882 14.375 11.5009 14.375C10.0135 14.375 8.56433 14.7793 7.42061 15.5133C6.86128 15.8666 6.36922 16.3166 5.96739 16.8421C5.95161 16.8632 5.93137 16.8806 5.90812 16.893C5.88487 16.9054 5.85917 16.9126 5.83285 16.9139C5.80653 16.9153 5.78023 16.9109 5.75581 16.901C5.7314 16.891 5.70947 16.8758 5.69157 16.8565C4.37342 15.4335 3.62674 13.5742 3.59462 11.6348C3.5214 7.26343 7.10841 3.60454 11.4816 3.59376C15.8547 3.58298 19.4071 7.13406 19.4071 11.5C19.4086 13.4862 18.6596 15.3996 17.3102 16.8569Z" fill="currentColor"/>
<path d="M11.4995 6.46875C10.6136 6.46875 9.81268 6.80072 9.24352 7.40402C8.67436 8.00732 8.39 8.84152 8.45424 9.73682C8.58451 11.5 9.95059 12.9375 11.4995 12.9375C13.0484 12.9375 14.4118 11.5 14.5447 9.73727C14.6112 8.85051 14.3291 8.02395 13.7505 7.40941C13.1791 6.80297 12.3795 6.46875 11.4995 6.46875Z" fill="currentColor"/>
</svg>
