<svg class="svg-font" viewBox="0 0 23 23" fill="none" xmlns="http://www.w3.org/2000/svg">
<path d="M14.3744 17.25V17.9688C14.3744 18.7312 14.0715 19.4625 13.5324 20.0017C12.9932 20.5408 12.2619 20.8438 11.4994 20.8438C10.7369 20.8438 10.0057 20.5408 9.4665 20.0017C8.92733 19.4625 8.62443 18.7312 8.62443 17.9688V17.25M19.2116 15.7869C18.058 14.375 17.2436 13.6563 17.2436 9.76377C17.2436 6.19922 15.4234 4.92928 13.9252 4.3125C13.7262 4.23074 13.5389 4.04297 13.4782 3.83857C13.2154 2.94418 12.4787 2.15625 11.4994 2.15625C10.5201 2.15625 9.78296 2.94463 9.52287 3.83947C9.46222 4.04611 9.2749 4.23074 9.07589 4.3125C7.57595 4.93018 5.75751 6.19563 5.75751 9.76377C5.75527 13.6563 4.94083 14.375 3.78724 15.7869C3.30927 16.3718 3.72794 17.25 4.56394 17.25H18.4394C19.2709 17.25 19.6869 16.3691 19.2116 15.7869Z" stroke="currentColor" stroke-width="1.4375" stroke-linecap="round" stroke-linejoin="round"/>
</svg>
