<svg width="61" height="27" viewBox="0 0 61 27" fill="none" xmlns="http://www.w3.org/2000/svg">
<path d="M0.117818 20H11.7115V16.959H3.53891V0.776727H0.117818V20ZM12.5848 13.4293C12.5848 17.5292 15.7344 20.3801 19.6714 20.3801C23.6083 20.3801 26.7579 17.5292 26.7579 13.4293C26.7579 9.32945 23.6083 6.58715 19.6714 6.58715C15.7344 6.58715 12.5848 9.32945 12.5848 13.4293ZM15.8973 13.4293C15.8973 11.393 17.092 9.248 19.6714 9.248C22.2508 9.248 23.4454 11.393 23.4454 13.4293C23.4454 15.4657 22.2508 17.665 19.6714 17.665C17.092 17.665 15.8973 15.4657 15.8973 13.4293ZM40.0717 6.96727V8.92218H40.0174C39.0671 7.34739 37.3565 6.58715 35.5374 6.58715C31.6004 6.58715 29.1568 9.65527 29.1568 13.4293C29.1568 17.1219 31.6819 20.2172 35.5917 20.2172C37.3837 20.2172 38.9042 19.5384 39.8545 18.2623H39.9088V19.2126C39.9088 21.792 38.9313 23.6926 35.7818 23.6926C34.1527 23.6926 32.4693 23.041 31.2203 21.8463L29.3468 24.3714C31.0302 25.7561 33.6911 26.5164 35.8089 26.5164C40.8862 26.5164 43.167 23.5297 43.167 18.8325V6.96727H40.0717ZM36.2162 9.248C38.5784 9.248 40.0717 11.1486 40.0717 13.4022C40.0717 15.5743 38.6055 17.5292 36.189 17.5292C33.854 17.5292 32.4693 15.4657 32.4693 13.4022C32.4693 11.0943 33.854 9.248 36.2162 9.248ZM46.3121 13.4293C46.3121 17.5292 49.4617 20.3801 53.3986 20.3801C57.3356 20.3801 60.4852 17.5292 60.4852 13.4293C60.4852 9.32945 57.3356 6.58715 53.3986 6.58715C49.4617 6.58715 46.3121 9.32945 46.3121 13.4293ZM49.6246 13.4293C49.6246 11.393 50.8192 9.248 53.3986 9.248C55.978 9.248 57.1727 11.393 57.1727 13.4293C57.1727 15.4657 55.978 17.665 53.3986 17.665C50.8192 17.665 49.6246 15.4657 49.6246 13.4293Z" fill="#9E58FF"/>
</svg>
