<svg width="73" height="31" viewBox="0 0 73 31" fill="none" xmlns="http://www.w3.org/2000/svg">
<path d="M0.514909 23H14.2824V19.3888H4.57745V0.172364H0.514909V23ZM15.3195 15.1973C15.3195 20.0659 19.0596 23.4514 23.7347 23.4514C28.4099 23.4514 32.15 20.0659 32.15 15.1973C32.15 10.3287 28.4099 7.07224 23.7347 7.07224C19.0596 7.07224 15.3195 10.3287 15.3195 15.1973ZM19.253 15.1973C19.253 12.7792 20.6717 10.232 23.7347 10.232C26.7978 10.232 28.2164 12.7792 28.2164 15.1973C28.2164 17.6155 26.7978 20.2272 23.7347 20.2272C20.6717 20.2272 19.253 17.6155 19.253 15.1973ZM47.9601 7.52364V9.84509H47.8957C46.7672 7.97503 44.7359 7.07224 42.5757 7.07224C37.9005 7.07224 34.9987 10.7156 34.9987 15.1973C34.9987 19.5823 37.9972 23.2579 42.6401 23.2579C44.7681 23.2579 46.5737 22.4519 47.7022 20.9365H47.7667V22.065C47.7667 25.128 46.606 27.385 42.8658 27.385C40.9313 27.385 38.9323 26.6112 37.4491 25.1925L35.2244 28.191C37.2234 29.8354 40.3832 30.7382 42.8981 30.7382C48.9274 30.7382 51.6358 27.1915 51.6358 21.6136V7.52364H47.9601ZM43.3817 10.232C46.1868 10.232 47.9601 12.489 47.9601 15.1651C47.9601 17.7445 46.219 20.0659 43.3495 20.0659C40.5766 20.0659 38.9323 17.6155 38.9323 15.1651C38.9323 12.4245 40.5766 10.232 43.3817 10.232ZM55.3706 15.1973C55.3706 20.0659 59.1107 23.4514 63.7859 23.4514C68.461 23.4514 72.2012 20.0659 72.2012 15.1973C72.2012 10.3287 68.461 7.07224 63.7859 7.07224C59.1107 7.07224 55.3706 10.3287 55.3706 15.1973ZM59.3042 15.1973C59.3042 12.7792 60.7229 10.232 63.7859 10.232C66.8489 10.232 68.2676 12.7792 68.2676 15.1973C68.2676 17.6155 66.8489 20.2272 63.7859 20.2272C60.7229 20.2272 59.3042 17.6155 59.3042 15.1973Z" fill="white"/>
</svg>
